<?xml version="1.0" standalone="no"?>
<!DOCTYPE svg PUBLIC "-//W3C//DTD SVG 20010904//EN"
 "http://www.w3.org/TR/2001/REC-SVG-20010904/DTD/svg10.dtd">
<svg version="1.0" xmlns="http://www.w3.org/2000/svg"
 width="1080.000000pt" height="1080.000000pt" viewBox="0 0 1080.000000 1080.000000"
 preserveAspectRatio="xMidYMid meet">

<g transform="translate(0.000000,1080.000000) scale(0.100000,-0.100000)"
fill="#000000" stroke="none">
<path d="M5907 10246 c-62 -23 -117 -67 -160 -128 -23 -32 -43 -58 -46 -58 -4
0 -18 20 -32 44 -54 89 -170 156 -245 141 -38 -7 -111 -76 -121 -113 -9 -36 3
-119 27 -192 27 -79 136 -263 182 -306 77 -73 190 -144 225 -144 19 1 142 135
232 254 107 141 177 333 152 416 -23 79 -124 119 -214 86z m103 -101 c46 -55
-69 -287 -234 -470 -19 -22 -36 -43 -36 -47 0 -21 -43 -3 -102 41 -98 75 -217
264 -235 376 -12 76 21 115 82 95 44 -14 116 -93 141 -152 22 -55 31 -60 85
-52 34 6 42 13 69 60 57 102 129 163 191 164 15 0 32 -7 39 -15z"/>
<path d="M6770 9484 c-217 -13 -456 -58 -582 -109 -33 -13 -82 -40 -109 -60
-41 -29 -57 -35 -97 -33 -58 2 -128 -10 -163 -28 -37 -19 -128 -120 -152 -171
-12 -24 -23 -43 -26 -42 -4 0 -26 32 -51 70 -55 86 -176 211 -250 260 -137 89
-237 108 -413 78 -134 -23 -295 -75 -311 -101 -8 -13 -7 -22 6 -34 15 -15 23
-15 105 9 338 97 484 72 666 -114 48 -49 102 -113 121 -142 18 -29 52 -81 75
-117 72 -113 153 -283 158 -334 l6 -47 -86 7 c-59 5 -101 3 -132 -6 -39 -11
-51 -10 -91 5 -36 14 -53 29 -80 71 -19 30 -42 54 -50 54 -12 0 -13 6 -8 23
14 39 10 89 -8 100 -25 16 -44 -5 -94 -105 -24 -48 -46 -88 -49 -88 -3 0 -18
29 -34 63 -15 35 -56 108 -90 163 -57 90 -61 100 -49 122 17 32 90 96 132 116
50 24 126 21 167 -7 48 -32 67 -78 84 -205 17 -129 35 -182 63 -182 39 0 45
23 39 148 -8 176 -40 256 -123 311 -114 75 -264 45 -374 -76 -52 -56 -64 -62
-78 -37 -17 30 -153 162 -187 179 -28 16 -36 17 -49 6 -28 -23 -18 -45 55
-126 74 -83 159 -189 159 -199 0 -3 -31 -6 -69 -6 -38 0 -87 -7 -110 -15 -54
-19 -122 -90 -119 -125 4 -39 32 -35 93 14 54 45 58 46 123 46 45 0 75 -5 88
-15 10 -8 33 -15 50 -15 30 0 35 -6 78 -89 46 -90 92 -231 106 -331 22 -149 5
-355 -37 -450 -59 -133 -59 -273 2 -475 36 -120 48 -175 61 -291 6 -58 4 -66
-31 -137 -48 -97 -101 -150 -173 -177 -63 -24 -91 -23 -211 4 -89 20 -127 16
-231 -29 -176 -76 -268 -83 -402 -35 -46 17 -104 37 -129 45 -35 11 -62 32
-108 80 -66 71 -95 120 -106 178 -9 44 -34 62 -60 43 -45 -32 10 -189 105
-301 64 -75 52 -69 290 -154 134 -48 270 -38 441 35 60 25 99 32 64 12 -62
-36 -89 -110 -104 -293 -29 -326 0 -614 86 -860 77 -220 84 -250 94 -365 62
-745 70 -854 63 -930 -3 -41 -15 -111 -26 -155 -32 -132 -112 -344 -147 -394
-12 -16 -35 -57 -51 -90 -17 -33 -52 -90 -78 -127 -111 -155 -244 -393 -313
-560 -104 -253 -135 -410 -149 -779 -5 -132 -15 -276 -21 -319 -8 -54 -9 -110
-3 -175 5 -53 8 -148 7 -211 -3 -135 14 -359 28 -377 7 -8 7 -18 -1 -32 -19
-37 -14 -127 9 -167 21 -35 21 -38 5 -86 -18 -56 -13 -131 12 -179 11 -23 13
-52 8 -139 -4 -60 -10 -110 -13 -110 -19 0 -199 457 -266 675 -25 83 -59 191
-75 240 -67 205 -130 460 -155 625 -8 58 -20 134 -25 170 -5 36 -14 90 -19
120 -5 33 -6 99 -1 161 8 93 15 123 65 255 31 82 63 169 70 194 7 25 35 108
63 185 28 77 55 158 61 180 13 47 15 145 3 145 -32 0 -107 -172 -184 -418 -16
-53 -46 -131 -65 -172 -19 -41 -51 -122 -70 -180 -31 -89 -37 -123 -41 -222
-3 -65 0 -151 6 -190 6 -40 18 -125 27 -188 31 -223 60 -339 185 -735 43 -134
70 -227 70 -236 0 -21 135 -368 200 -515 39 -86 76 -177 84 -202 19 -61 62
-177 83 -224 15 -35 19 -38 55 -38 39 0 40 0 33 32 -4 18 -18 65 -32 103 -26
75 -40 191 -25 213 8 12 15 11 42 -3 24 -12 50 -16 91 -13 52 4 63 9 131 63
40 32 116 100 168 150 80 77 107 97 170 122 71 30 170 52 170 39 0 -3 -20 -42
-45 -87 -25 -45 -45 -84 -45 -86 0 -3 -8 -17 -19 -31 -36 -52 -65 -153 -65
-228 0 -97 23 -155 81 -199 39 -30 54 -35 100 -35 30 0 68 7 85 16 27 14 36
14 72 3 63 -21 140 -17 190 11 l43 23 54 -26 c99 -50 232 -29 277 44 26 44 48
124 62 227 6 45 18 101 25 123 8 23 15 60 15 82 0 23 9 54 21 73 14 23 23 60
27 116 6 67 10 82 22 78 30 -9 384 0 581 15 293 23 376 32 481 55 125 27 157
41 268 114 95 62 157 123 266 263 27 34 76 95 109 135 131 158 193 313 197
489 1 70 -2 85 -34 151 -37 75 -117 167 -171 195 -28 14 -28 16 -24 81 3 37
10 146 16 242 6 96 16 197 21 223 6 26 10 72 10 101 0 50 44 420 57 476 7 34
112 372 116 376 7 7 27 -124 37 -241 6 -66 17 -142 25 -170 8 -27 21 -98 30
-157 9 -59 23 -127 31 -150 8 -24 24 -86 35 -138 10 -52 33 -151 49 -220 33
-136 45 -190 86 -380 14 -69 44 -186 66 -260 39 -130 41 -141 44 -305 5 -201
12 -241 60 -338 56 -109 66 -161 73 -367 7 -197 11 -213 67 -279 34 -41 78
-63 116 -59 31 3 31 2 44 -57 6 -33 19 -78 28 -100 19 -45 84 -116 136 -149
60 -38 186 -85 257 -97 92 -15 356 1 403 25 31 15 37 15 83 0 52 -17 119 -13
148 9 39 29 54 79 54 177 -1 85 -4 101 -28 145 -36 64 -56 86 -143 160 -129
109 -191 155 -230 171 -56 23 -183 102 -214 133 -130 127 -221 273 -259 413
-11 40 -25 88 -30 107 -6 19 -20 91 -31 160 -11 69 -27 158 -35 196 -17 80
-31 215 -45 427 -5 80 -12 157 -15 170 -3 12 -7 230 -9 483 -3 459 -3 460 -35
675 -17 118 -34 222 -36 230 -9 28 -35 314 -46 490 -10 180 -35 367 -69 525
-11 49 -20 103 -20 120 0 16 -7 55 -16 85 -9 30 -24 84 -34 120 -33 118 -127
373 -182 495 -78 171 -131 335 -177 551 -11 49 -30 115 -42 145 -37 93 -135
402 -195 615 -27 96 -11 242 41 384 22 61 32 98 74 280 10 41 30 99 45 128 38
76 66 192 66 280 0 62 4 82 28 123 15 27 29 49 32 49 3 0 18 -28 33 -62 34
-77 100 -163 152 -201 22 -15 49 -34 61 -42 33 -24 164 -66 220 -72 97 -10
180 53 195 149 18 113 -24 260 -125 433 -134 230 -177 328 -221 504 -43 169
-87 248 -155 279 -25 12 -64 24 -86 28 -53 8 -173 -21 -215 -52 -31 -23 -32
-23 -58 -5 -53 38 -234 114 -333 140 -143 39 -409 64 -568 55z m330 -94 c25
-5 67 -12 93 -15 124 -16 326 -87 418 -145 73 -47 96 -48 159 -4 52 36 59 38
134 38 76 1 79 0 105 -31 29 -36 63 -120 81 -203 14 -63 74 -238 100 -290 36
-73 93 -176 105 -190 26 -30 123 -237 144 -305 18 -62 19 -75 7 -114 -17 -60
-46 -81 -109 -81 -111 0 -235 71 -301 174 -84 130 -109 193 -145 360 -25 113
-48 169 -99 238 -33 44 -59 58 -75 42 -3 -4 1 -23 9 -43 22 -51 38 -103 64
-201 29 -109 23 -161 -29 -283 -33 -77 -41 -109 -46 -183 -8 -112 -9 -120 -51
-226 -19 -48 -38 -106 -43 -130 -8 -40 -32 -123 -82 -293 -25 -83 -65 -150
-120 -200 -43 -38 -152 -111 -209 -139 -54 -26 -73 -43 -67 -61 16 -40 171 2
258 70 32 25 63 43 69 40 5 -3 10 -24 10 -46 0 -46 17 -122 66 -289 18 -63 36
-128 40 -145 9 -41 101 -294 118 -325 8 -14 21 -62 30 -107 34 -179 78 -332
126 -438 107 -235 123 -276 194 -490 49 -146 93 -340 120 -532 9 -59 23 -153
31 -208 8 -55 21 -201 30 -325 8 -124 24 -279 35 -345 74 -457 73 -447 75
-900 2 -386 14 -646 44 -980 4 -49 20 -137 34 -195 14 -58 31 -139 37 -180 22
-142 77 -333 121 -420 9 -19 39 -60 66 -91 26 -31 74 -88 105 -126 60 -75 121
-120 242 -182 41 -21 98 -57 127 -80 30 -23 70 -54 89 -69 128 -99 170 -161
178 -261 5 -76 -17 -141 -48 -141 -23 0 -80 20 -80 29 0 13 -52 62 -62 59 -6
-2 -12 -17 -14 -33 -4 -38 -28 -55 -73 -54 -85 3 -99 12 -143 97 -6 12 -19 21
-27 20 -13 -3 -15 -15 -13 -61 l4 -57 -39 0 c-165 0 -375 98 -428 199 -17 33
-45 168 -45 216 0 38 -26 89 -41 79 -5 -3 -9 -18 -9 -34 0 -22 -6 -30 -30 -38
-24 -9 -33 -7 -56 10 -46 37 -54 73 -54 246 0 179 -9 216 -79 337 -66 112 -84
180 -74 272 16 148 7 220 -52 423 -18 63 -52 203 -75 310 -22 107 -47 222 -56
255 -8 33 -28 124 -44 203 -16 79 -37 167 -45 195 -9 29 -22 97 -31 152 -8 55
-22 127 -30 159 -9 33 -24 155 -34 271 -16 192 -21 219 -49 287 -38 90 -74
149 -125 203 -21 22 -61 69 -89 105 -28 36 -82 96 -120 135 -70 70 -70 70 -63
35 8 -41 68 -135 169 -264 111 -141 131 -185 131 -281 1 -72 -3 -88 -38 -160
-52 -109 -84 -189 -102 -260 -33 -123 -65 -390 -74 -600 -4 -119 -15 -247 -25
-295 -9 -47 -19 -123 -23 -170 l-7 -85 -64 -20 c-72 -23 -92 -45 -40 -45 18 0
62 -5 98 -11 60 -10 70 -16 116 -63 28 -28 66 -78 84 -110 33 -57 34 -60 28
-150 -9 -154 -53 -253 -179 -403 -35 -42 -82 -101 -106 -132 -90 -117 -157
-183 -240 -239 -48 -32 -105 -65 -127 -74 -76 -30 -272 -58 -553 -79 -155 -12
-299 -25 -320 -30 -42 -10 -241 -10 -287 0 -24 5 -36 17 -60 66 l-30 60 -1
215 c-2 161 -6 229 -18 269 -8 30 -13 58 -10 63 9 15 169 9 215 -8 37 -14 76
-15 255 -10 255 8 474 23 526 36 21 6 57 15 81 21 43 11 90 46 82 60 -3 4 -20
6 -38 4 -17 -2 -68 -9 -112 -15 -151 -19 -614 -32 -711 -20 -49 7 -139 12
-201 13 l-112 1 -12 60 c-34 175 -12 1073 36 1444 8 62 15 185 15 272 l0 160
44 42 c112 109 247 332 281 463 16 64 20 115 8 114 -12 0 -91 -112 -103 -144
-20 -51 -91 -188 -123 -234 -39 -58 -90 -121 -98 -121 -3 0 -9 98 -12 218 -5
210 -18 301 -43 309 -5 2 -19 -20 -29 -49 -16 -43 -20 -76 -19 -173 6 -596 5
-750 -5 -830 -31 -242 -51 -629 -54 -1025 -2 -314 -6 -273 60 -688 12 -77 14
-136 9 -240 -7 -158 5 -236 51 -323 24 -47 28 -65 27 -137 -1 -88 -12 -115
-38 -92 -9 7 -22 10 -30 7 -12 -5 -12 -15 2 -68 14 -56 14 -67 -1 -128 -9 -36
-22 -104 -28 -151 -6 -47 -20 -108 -31 -137 -17 -46 -24 -54 -56 -63 -53 -14
-82 -12 -122 8 -25 12 -36 25 -40 46 -6 35 -29 46 -37 18 -8 -30 -92 -72 -147
-72 -46 0 -67 12 -92 55 -9 17 -14 16 -77 -18 -128 -71 -197 -38 -197 95 0 99
23 155 157 380 102 171 132 253 169 463 39 218 36 491 -7 755 -12 74 -23 169
-25 210 -14 304 -32 448 -94 790 -52 281 -72 446 -71 585 0 72 0 312 0 535 0
502 18 720 66 823 37 80 48 175 41 352 -7 172 7 393 30 498 17 75 81 220 130
297 16 25 61 88 101 140 98 130 105 157 104 360 -1 127 3 187 18 261 32 159
108 323 209 449 114 143 152 194 152 202 0 18 17 3 75 -67 78 -93 118 -128
188 -166 59 -31 146 -45 154 -24 2 6 -26 30 -61 54 -102 67 -216 193 -265 292
-53 109 -65 173 -58 330 5 114 8 132 34 180 27 52 28 60 29 199 1 84 6 157 12
173 17 41 15 75 -7 94 -22 18 -17 35 25 86 19 23 24 40 24 87 0 85 -19 135
-108 284 -53 88 -53 89 -34 110 10 11 33 44 51 73 50 80 103 123 151 123 22 0
40 -3 40 -6 0 -3 -15 -24 -34 -47 -44 -55 -57 -82 -50 -101 13 -33 50 -18 93
39 23 30 70 78 106 106 35 29 66 58 69 65 9 24 107 65 237 99 115 30 242 49
394 59 75 5 294 -4 345 -14z m-1769 -856 c12 -13 41 -31 65 -41 24 -10 44 -22
44 -26 0 -4 -7 -24 -16 -45 -8 -20 -24 -109 -35 -197 -22 -176 -25 -193 -45
-215 -19 -22 -44 -137 -38 -174 11 -66 15 -76 35 -95 54 -50 124 -33 247 63
l74 57 -4 -163 c-5 -196 -23 -265 -92 -349 -134 -164 -271 -417 -312 -574 -22
-84 -27 -133 -33 -300 -4 -110 -12 -211 -18 -225 -6 -14 -45 -70 -86 -125 -80
-107 -174 -275 -207 -369 -39 -115 -52 -252 -54 -571 -1 -297 -1 -301 -26
-355 l-25 -55 -7 40 c-4 22 -7 69 -7 104 -1 35 -5 102 -11 150 -5 47 -14 132
-20 188 -9 94 -43 213 -100 351 -6 13 -10 36 -10 53 0 16 -6 40 -14 52 -46 70
-81 438 -65 686 5 79 11 151 13 160 2 9 7 28 10 43 8 38 59 65 134 71 35 3 71
12 80 20 10 8 44 17 78 19 132 9 248 100 324 252 35 73 43 97 44 149 1 86 -21
228 -45 289 -35 90 -62 219 -62 308 -1 75 3 94 33 165 31 73 34 88 34 180 -1
120 -21 361 -36 429 -10 47 -9 51 11 65 12 8 36 34 53 59 l31 45 18 -48 c10
-26 28 -58 40 -71z m372 -74 l34 -20 -18 -38 c-29 -59 -38 -128 -28 -222 14
-141 -2 -172 -144 -283 -93 -73 -123 -91 -137 -82 -16 10 -12 61 10 123 12 32
27 120 36 202 14 128 22 176 52 295 9 34 31 42 109 44 35 1 63 -5 86 -19z
m-960 -4723 l2 -125 -31 -39 c-23 -29 -46 -43 -95 -59 -35 -12 -65 -20 -67
-19 -5 4 30 71 87 165 28 46 51 90 51 97 0 19 41 115 47 109 2 -2 5 -60 6
-129z m1 -293 c3 -9 6 -43 6 -77 0 -86 23 -234 93 -617 42 -229 64 -412 86
-725 5 -71 18 -184 29 -250 19 -111 35 -436 22 -448 -3 -2 -45 1 -95 6 -191
22 -275 10 -420 -59 -72 -34 -95 -37 -95 -11 0 24 -51 119 -86 163 -20 24 -66
68 -103 96 -99 78 -137 121 -155 176 -16 46 -16 55 0 128 22 101 21 95 38 384
21 348 42 457 135 683 66 160 130 276 161 292 15 8 34 25 43 38 34 52 132 149
170 169 22 11 62 26 88 34 27 8 51 19 54 24 9 15 22 12 29 -6z m-622 -1986
c44 -40 87 -86 95 -103 9 -16 31 -47 49 -68 21 -23 34 -47 34 -65 0 -24 -7
-31 -64 -55 -37 -17 -86 -29 -117 -31 -30 -2 -60 -5 -67 -7 -11 -3 -15 36 -19
199 -3 111 -2 202 2 202 3 0 43 -33 87 -72z m781 -203 c38 -2 70 -5 73 -8 6
-5 -30 -206 -52 -297 -13 -51 -55 -158 -70 -179 -2 -2 -16 1 -33 7 -38 13
-131 -5 -227 -45 -56 -23 -88 -47 -179 -133 -203 -192 -233 -212 -290 -190
-39 15 -45 26 -45 88 0 63 16 98 60 131 37 27 30 40 -25 45 -50 5 -68 29 -60
79 6 43 31 87 49 87 7 0 23 11 35 24 19 21 20 24 6 30 -9 3 -26 6 -37 6 -11 0
-33 9 -49 21 -22 15 -29 28 -29 54 0 51 26 74 100 90 93 19 150 40 280 102
198 95 233 105 345 97 44 -4 111 -8 148 -9z"/>
<path d="M6223 8867 c-34 -12 -82 -36 -107 -54 -54 -39 -104 -118 -89 -142 20
-32 47 -24 94 31 47 54 104 87 187 108 35 9 42 15 42 35 0 24 -25 45 -52 45
-7 0 -41 -11 -75 -23z"/>
<path d="M7316 8837 c-21 -15 -18 -46 4 -58 8 -4 40 -15 71 -23 71 -20 116
-51 152 -104 29 -43 55 -53 76 -28 34 40 -64 159 -159 193 -81 30 -123 35
-144 20z"/>
<path d="M6268 8619 c-62 -22 -128 -83 -128 -119 0 -27 41 -27 65 0 10 11 43
29 74 41 63 23 111 20 194 -12 83 -33 102 -7 40 53 -38 36 -102 59 -160 57
-15 0 -54 -10 -85 -20z"/>
<path d="M7173 8535 c-30 -13 -52 -49 -38 -63 4 -4 52 -7 108 -7 96 -1 106 -3
170 -35 53 -27 72 -32 85 -24 28 18 20 46 -23 75 -87 60 -230 85 -302 54z"/>
<path d="M6315 8080 c-50 -20 -95 -100 -95 -169 0 -51 32 -137 70 -189 35 -49
129 -115 204 -143 l54 -21 88 22 c151 37 249 113 314 243 47 94 38 152 -34
215 -62 54 -179 69 -249 32 -20 -11 -47 -20 -60 -20 -13 0 -50 9 -82 20 -60
21 -172 26 -210 10z m204 -112 c70 -23 122 -23 171 2 72 37 178 16 192 -38 8
-28 -32 -111 -77 -160 -63 -70 -197 -134 -240 -113 -11 5 -40 18 -65 29 -108
47 -180 134 -180 219 0 90 60 109 199 61z"/>
<path d="M6230 7358 c0 -19 40 -71 77 -100 49 -38 96 -43 168 -17 94 33 126
35 171 7 104 -65 170 -66 256 -6 114 80 96 151 -19 78 -64 -41 -102 -39 -197
10 -87 45 -121 49 -185 20 -74 -34 -109 -35 -181 -6 -70 29 -90 32 -90 14z"/>
<path d="M3910 9465 c-52 -7 -158 -24 -235 -40 -155 -30 -268 -34 -545 -21
-124 6 -168 5 -220 -7 -36 -9 -96 -23 -135 -32 -185 -42 -345 -125 -568 -292
-122 -91 -148 -118 -190 -203 l-32 -65 2 -180 c1 -99 8 -220 15 -270 6 -49 12
-131 13 -181 0 -77 3 -95 20 -114 16 -18 27 -21 58 -16 57 9 111 40 144 83
109 138 208 322 247 457 l17 58 37 -7 c80 -15 140 -63 183 -145 21 -40 24 -57
22 -150 -2 -128 -14 -164 -93 -287 -33 -50 -74 -123 -91 -160 -37 -83 -79
-254 -79 -325 0 -48 -3 -55 -30 -70 -24 -13 -30 -24 -30 -50 -1 -91 -53 -210
-144 -331 -34 -45 -74 -102 -90 -126 -43 -67 -165 -219 -228 -286 -129 -136
-176 -204 -207 -300 -32 -103 -116 -274 -172 -355 -45 -65 -180 -191 -442
-413 -102 -87 -187 -162 -189 -167 -2 -5 -52 -61 -112 -124 -226 -242 -331
-380 -443 -581 -80 -143 -109 -212 -148 -344 -20 -68 -43 -140 -51 -159 -26
-63 -74 -335 -94 -537 -22 -219 -21 -426 5 -645 8 -63 17 -153 20 -200 9 -112
21 -157 44 -163 40 -10 44 4 37 132 -3 67 -13 172 -20 234 -26 205 -28 422 -6
627 20 191 55 387 89 500 97 319 116 366 235 579 78 142 163 251 356 461 53
58 114 124 134 147 21 24 117 111 214 195 309 267 409 366 476 468 68 104 122
210 144 282 12 37 29 82 38 100 18 35 144 187 189 228 38 34 179 211 220 274
18 28 56 80 85 116 29 36 72 105 96 155 24 51 45 83 48 75 2 -8 10 -32 16 -52
15 -49 55 -82 81 -67 25 13 24 50 -2 152 -16 59 -22 111 -21 187 0 193 57 355
188 540 55 77 73 149 79 322 7 167 21 218 80 283 74 81 96 115 93 137 -2 15
-11 24 -27 26 -19 3 -41 -13 -102 -74 -43 -43 -83 -90 -90 -106 -6 -15 -15
-28 -19 -28 -4 0 -23 14 -41 30 -47 42 -127 80 -166 80 -18 0 -33 4 -33 9 0
21 44 104 84 158 102 138 270 226 458 240 88 6 104 15 92 48 -9 21 -39 28
-129 27 -148 0 -305 -68 -433 -186 -81 -74 -156 -210 -216 -386 -47 -137 -100
-242 -183 -364 -75 -109 -93 -124 -93 -77 0 16 -6 60 -14 98 -24 115 -41 412
-27 480 16 83 66 152 159 220 42 32 86 66 97 76 38 36 141 98 250 152 85 42
141 62 245 86 123 28 145 30 250 25 63 -3 142 -10 175 -17 89 -17 296 -6 450
25 162 32 303 46 454 46 130 0 201 -14 274 -55 61 -35 97 -29 97 15 0 49 -57
91 -169 124 -66 19 -304 20 -451 1z"/>
<path d="M3505 8822 c-100 -48 -215 -176 -231 -257 -8 -42 10 -75 40 -75 19 0
29 11 49 53 32 69 94 145 145 181 44 30 60 31 183 10 28 -5 38 -2 43 11 10 26
-10 51 -56 70 -66 26 -127 29 -173 7z"/>
<path d="M4811 8509 c-69 -13 -132 -81 -111 -119 14 -25 44 -25 85 0 43 27
113 35 159 20 33 -10 40 -10 57 6 30 27 21 63 -21 85 -37 20 -94 23 -169 8z"/>
<path d="M3560 8419 c-57 -25 -130 -96 -130 -125 0 -68 47 -74 112 -14 61 56
123 72 198 50 42 -12 67 -5 75 20 23 73 -145 119 -255 69z"/>
<path d="M4453 7596 c-91 -30 -164 -96 -183 -166 -13 -48 -5 -118 20 -175 50
-118 241 -311 339 -344 64 -21 92 -14 176 44 138 96 164 128 221 272 41 105
50 154 35 209 -41 152 -188 202 -299 101 l-22 -21 -38 23 c-108 65 -176 81
-249 57z m185 -146 c92 -53 125 -52 195 6 42 35 83 32 107 -8 28 -46 25 -84
-12 -191 -27 -77 -40 -100 -83 -142 -76 -76 -128 -108 -162 -101 -71 16 -242
181 -295 285 -40 79 -9 155 77 186 53 20 91 12 173 -35z"/>
<path d="M2073 3374 c-11 -30 5 -219 25 -299 12 -44 31 -123 43 -175 29 -128
60 -209 172 -456 117 -258 177 -409 212 -539 14 -55 37 -139 50 -187 14 -47
47 -132 75 -188 27 -56 50 -110 50 -119 -1 -19 -34 -61 -48 -61 -5 0 -12 9
-15 19 -7 29 -40 43 -63 27 -18 -13 -17 -15 1 -57 11 -24 32 -58 48 -75 38
-44 87 -156 87 -199 0 -39 -35 -102 -62 -110 -30 -10 -66 6 -108 51 -22 24
-48 44 -57 44 -9 0 -35 -21 -57 -46 -65 -73 -178 -187 -211 -212 -16 -12 -67
-42 -113 -65 l-82 -42 -23 29 c-26 32 -59 33 -65 2 -2 -10 18 -61 44 -113 47
-91 49 -98 49 -178 0 -98 -20 -138 -73 -143 -43 -4 -66 10 -112 73 -26 36 -48
55 -61 55 -11 0 -54 -23 -95 -50 -116 -78 -377 -205 -464 -225 -51 -12 -121
-18 -218 -19 -130 -1 -145 -3 -158 -20 -18 -25 -18 -31 2 -50 11 -12 38 -16
102 -17 245 -3 335 17 543 122 79 40 176 94 216 121 l72 49 37 -41 c47 -51 82
-70 132 -70 50 0 99 33 125 83 27 53 33 157 12 227 -29 98 -29 99 -9 106 98
33 290 162 319 213 6 10 28 40 50 67 21 27 41 51 42 53 2 3 18 -10 37 -28 36
-35 103 -56 140 -45 53 16 105 94 113 169 5 45 0 64 -32 139 l-37 87 20 20
c12 10 23 19 26 19 7 0 97 -191 111 -235 7 -24 24 -58 38 -76 30 -40 90 -168
118 -254 11 -33 26 -69 33 -80 14 -22 96 -262 175 -512 l52 -163 44 0 c50 0
51 3 31 57 -23 62 -83 254 -100 319 -9 34 -43 133 -76 220 -34 88 -81 222
-107 299 -25 77 -51 151 -58 165 -7 14 -24 50 -38 80 -25 53 -66 127 -110 200
-54 90 -178 344 -191 392 -8 29 -31 114 -52 188 -25 92 -55 172 -94 250 -32
63 -79 169 -105 235 -26 66 -67 163 -92 215 -25 52 -53 117 -64 145 -26 71
-98 355 -114 453 -8 51 -24 100 -40 127 -28 50 -33 52 -42 29z"/>
<path d="M200 1906 c0 -8 29 -41 65 -73 85 -75 239 -278 280 -368 35 -77 64
-186 96 -370 29 -164 23 -340 -15 -470 -15 -49 -33 -99 -40 -110 -7 -11 -19
-38 -26 -60 -40 -124 -152 -309 -243 -402 l-51 -53 59 0 c54 0 61 3 87 33 33
37 178 251 178 263 0 4 11 30 24 58 108 227 142 382 133 600 -12 293 -112 585
-260 754 -119 137 -287 252 -287 198z"/>
</g>
</svg>
